<svg version="1.1" id="Layer_1" xmlns="http://www.w3.org/2000/svg" xmlns:xlink="http://www.w3.org/1999/xlink" x="0px" y="0px"
	 width="100%" viewBox="0 0 1024 1024" enable-background="new 0 0 1024 1024" xml:space="preserve">
<path fill="#000000" opacity="1.000000" stroke="none" 
	d="
M275.875336,798.863892 
	C288.210999,787.423645 303.155212,781.166321 318.918060,782.173828 
	C348.068329,784.036926 371.621857,772.027527 394.492462,756.765869 
	C430.581238,732.683655 465.263641,706.801025 496.161316,676.180786 
	C505.397339,667.027710 514.056335,657.325562 520.522400,645.915649 
	C521.665649,643.898254 522.711365,641.754395 523.356689,639.539185 
	C525.433350,632.411011 521.791382,628.730896 514.484375,629.687744 
	C506.509033,630.732117 499.096771,633.787964 491.287018,635.413147 
	C465.686829,640.740479 441.833008,636.044189 419.008209,623.888000 
	C391.772522,609.382568 373.100616,587.251038 359.401978,559.971436 
	C340.928802,523.183594 330.193604,484.095215 322.615723,443.919525 
	C320.337738,431.842316 317.632629,419.865234 313.732727,408.159027 
	C308.098267,391.246216 297.617950,378.441467 282.132172,369.766418 
	C269.536713,362.710510 260.430298,352.985901 256.504547,338.725067 
	C248.332199,309.037994 271.555969,279.324127 301.297363,278.369873 
	C328.046448,277.511658 346.654877,297.708771 349.933441,318.313599 
	C351.329865,327.089630 350.853271,336.059906 347.802948,344.452057 
	C338.158722,370.985504 340.216553,397.750610 345.653809,424.610168 
	C348.559265,438.962921 352.308929,453.107880 358.027161,466.637177 
	C359.812378,470.861023 361.251129,475.979706 366.782043,476.544373 
	C372.607849,477.139099 374.964264,472.139526 377.578278,468.176331 
	C382.750488,460.334442 385.831299,451.508301 389.202026,442.804596 
	C407.742767,394.930145 434.360229,351.932861 468.383270,313.585571 
	C487.065216,292.529175 506.544769,272.182495 525.399536,251.276672 
	C537.444824,237.921082 549.277222,224.356812 555.972229,207.195923 
	C560.403931,195.836487 560.518921,184.689804 556.547607,173.151489 
	C547.311157,146.315643 555.938049,118.102013 577.685303,102.860275 
	C610.710754,79.714096 658.650330,99.031685 666.345398,138.586487 
	C672.285217,169.118912 657.144470,194.788223 626.420776,206.406387 
	C619.269775,209.110565 611.874939,211.080124 604.838562,214.160522 
	C590.941345,220.244446 581.095093,231.082474 571.261780,241.989944 
	C553.974060,261.166229 536.615723,280.279816 519.450378,299.565125 
	C499.737030,321.713074 479.905426,343.812805 464.871429,369.586273 
	C458.237762,380.958618 452.098633,392.655884 452.319458,406.427856 
	C452.455841,414.934540 459.751404,420.699829 468.221344,419.329803 
	C481.012665,417.260864 491.196014,410.145081 500.031433,401.559326 
	C532.692017,369.821533 572.344910,351.798492 615.786865,340.662994 
	C631.235840,336.702972 646.649597,332.467041 661.788574,327.475067 
	C677.357422,322.341370 692.387817,315.836517 702.644226,301.964478 
	C706.027405,297.388824 708.662231,292.412354 710.951050,287.196594 
	C718.770447,269.378021 730.164612,254.816177 748.846497,247.390976 
	C782.544250,233.997681 815.310303,255.657288 822.130127,287.529297 
	C830.541626,326.839752 800.005188,360.472565 759.708923,357.206451 
	C754.622498,356.794159 749.329407,355.915375 744.653870,353.987427 
	C727.334717,346.845856 709.633972,346.616089 691.748840,350.459076 
	C651.855713,359.030823 612.593750,369.807922 575.420593,386.969086 
	C560.631958,393.796326 547.268555,402.910797 538.244202,417.051697 
	C532.276489,426.402893 532.934448,429.664825 541.725891,436.178345 
	C559.905273,449.647308 573.452576,466.920013 583.632019,486.985046 
	C584.533142,488.761353 585.505615,490.529053 586.668945,492.138794 
	C588.850586,495.157562 591.460205,496.129578 595.308838,494.666351 
	C611.932251,488.346436 629.252991,488.987030 646.543213,490.262848 
	C667.047974,491.775909 686.598999,498.004211 706.394287,502.951080 
	C716.407043,505.453308 726.118042,505.051270 735.746765,501.364410 
	C751.642212,495.277863 767.520752,494.581512 782.103149,504.320496 
	C800.283325,516.462341 803.494934,532.862671 800.891968,550.540894 
	C798.131226,569.289673 784.296204,582.505737 765.779724,586.352661 
	C744.117310,590.853149 725.268005,581.423157 715.191284,560.892273 
	C711.451477,553.272583 708.200928,545.436646 702.179810,539.143494 
	C690.924683,527.379883 676.608521,522.172729 661.076782,519.370422 
	C650.255676,517.418030 639.452209,517.926514 628.933655,520.680359 
	C607.991394,526.163208 595.066772,538.876953 590.247986,560.898376 
	C577.598999,618.703735 549.977905,668.175232 504.451080,706.688538 
	C477.625122,729.381897 450.078125,751.221375 422.945526,773.554382 
	C412.102905,782.479065 402.408203,792.509583 394.344421,804.105164 
	C384.921082,817.655823 381.321960,833.042480 379.322388,849.041626 
	C375.875183,876.623657 357.468567,898.893066 332.563354,905.776855 
	C297.104340,915.577698 260.489624,890.514771 256.597137,853.996338 
	C254.318863,832.621948 260.127930,814.238342 275.875336,798.863892 
z"/>
</svg>